<?xml version="1.0" encoding="UTF-8"?>
<svg xmlns="http://www.w3.org/2000/svg" width="744" height="1038" viewBox="0 0 744 1038" role="img" aria-label="Gouffre de Namor">
  <defs>
    <linearGradient id="cadreBois" x1="0" y1="0" x2="0.4" y2="1">
      <stop offset="0%" stop-color="#ffb45a" stop-opacity="0.55"/>
      <stop offset="18%" stop-color="#b34120"/>
      <stop offset="55%" stop-color="#2b0d08"/>
      <stop offset="100%" stop-color="#b34120" stop-opacity="0.9"/>
    </linearGradient>
    <linearGradient id="cadrePierre" x1="0" y1="0" x2="0.25" y2="1">
      <stop offset="0%" stop-color="#8d8377"/>
      <stop offset="24%" stop-color="#b34120"/>
      <stop offset="62%" stop-color="#2b0d08"/>
      <stop offset="100%" stop-color="#6d6459"/>
    </linearGradient>
    <linearGradient id="orBrosse" x1="0" y1="0" x2="0.3" y2="1">
      <stop offset="0%" stop-color="#f6dfa6"/>
      <stop offset="45%" stop-color="#e8c477"/>
      <stop offset="100%" stop-color="#8a6526"/>
    </linearGradient>
    <linearGradient id="parchemin" x1="0" y1="0" x2="0" y2="1">
      <stop offset="0%" stop-color="#fbf1dc"/>
      <stop offset="100%" stop-color="#e4cfa8"/>
    </linearGradient>
    <radialGradient id="pierre" cx="0.35" cy="0.28" r="0.85">
      <stop offset="0%" stop-color="#ffffff" stop-opacity="0.4"/>
      <stop offset="45%" stop-color="#ffffff" stop-opacity="0.05"/>
      <stop offset="100%" stop-color="#000000" stop-opacity="0.5"/>
    </radialGradient>
    <linearGradient id="creuxHaut" x1="0" y1="0" x2="0" y2="1">
      <stop offset="0%" stop-color="#000000" stop-opacity="0.4"/>
      <stop offset="55%" stop-color="#000000" stop-opacity="0"/>
    </linearGradient>
    <clipPath id="clipArt"><rect x="56" y="232" width="632" height="432" rx="6"/></clipPath>
    <clipPath id="clipElement"><circle cx="644" cy="98" r="41"/></clipPath>
  </defs>

  <rect width="744" height="1038" rx="22" fill="#140d0b"/>
  <rect x="12" y="12" width="720" height="1014" rx="18" fill="url(#cadrePierre)"/>
  <rect x="12" y="12" width="720" height="1014" rx="18" fill="none" stroke="#e8c477" stroke-width="1.5" opacity="0.5"/>
  <rect x="24" y="24" width="696" height="990" rx="14" fill="none" stroke="#8a6526" stroke-width="2" opacity="0.8"/>
  <rect x="32" y="32" width="680" height="974" rx="10" fill="#191110" opacity="0.5"/>

  <rect x="100" y="60" width="544" height="68" fill="url(#orBrosse)" opacity="0.28"/>
  <rect x="146" y="50" width="452" height="96" rx="12" fill="#140d0b" opacity="0.85"/>
  <rect x="150" y="54" width="444" height="88" rx="10" fill="url(#orBrosse)"/>
  <rect x="160" y="58" width="424" height="80" rx="7" fill="url(#parchemin)"/>
  <rect x="160" y="58" width="424" height="80" rx="7" fill="url(#creuxHaut)" opacity="0.3"/>
  <rect x="164" y="62" width="416" height="72" rx="5" fill="none" stroke="#2b0d08" stroke-width="1.5" opacity="0.45"/>
  <text x="372" y="110.25" text-anchor="middle" font-family="Georgia, 'Palatino Linotype', 'Book Antiqua', serif" font-size="35" font-weight="700" fill="#1d120c">Gouffre de Namor</text>

  <g>
    <circle cx="100" cy="98" r="52" fill="#140d0b" opacity="0.9"/>
    <circle cx="100" cy="98" r="50" fill="url(#orBrosse)"/>
    <circle cx="100" cy="98" r="46" fill="none" stroke="#8a6526" stroke-width="2"/>
    <circle cx="100" cy="98" r="44" fill="#2b0d08"/>
    <circle cx="100" cy="98" r="44" fill="url(#pierre)"/>
    <circle cx="100" cy="98" r="44" fill="none" stroke="#ffb45a" stroke-width="2" opacity="0.75"/>
    <ellipse cx="100" cy="79.52" rx="22.880000000000003" ry="13.2" fill="#ffffff" opacity="0.2"/>
    <text x="100" y="113" text-anchor="middle" font-family="Georgia, 'Times New Roman', serif" font-size="42" font-weight="700" fill="#fff8e4">1</text>
  </g>
  <g>
    <circle cx="644" cy="98" r="52" fill="#140d0b" opacity="0.9"/>
    <circle cx="644" cy="98" r="50" fill="url(#orBrosse)"/>
    <circle cx="644" cy="98" r="46" fill="none" stroke="#8a6526" stroke-width="2"/>
    <circle cx="644" cy="98" r="44" fill="#2b0d08"/>
    <circle cx="644" cy="98" r="44" fill="url(#pierre)"/>
    <circle cx="644" cy="98" r="44" fill="none" stroke="#ffb45a" stroke-width="2" opacity="0.75"/>
    <ellipse cx="644" cy="79.52" rx="22.880000000000003" ry="13.2" fill="#ffffff" opacity="0.2"/>
    <image href="../Types/Feu.png" x="603" y="57" width="82" height="82" clip-path="url(#clipElement)"/>
  </g>

  <rect x="90" y="164" width="564" height="60" rx="9" fill="url(#orBrosse)" opacity="0.92"/>
  <rect x="96" y="168" width="552" height="52" rx="6" fill="url(#parchemin)"/>
  <rect x="96" y="168" width="552" height="52" rx="6" fill="url(#creuxHaut)" opacity="0.26"/>
  <text x="372" y="202.64" text-anchor="middle" font-family="Georgia, 'Times New Roman', serif" font-size="24" font-weight="700" letter-spacing="0.8" fill="#4a3524">TERRAIN - GOUFFRE</text>

  <rect x="46" y="222" width="652" height="452" rx="10" fill="#140d0b" opacity="0.9"/>
  <rect x="50" y="226" width="644" height="444" rx="8" fill="url(#orBrosse)"/>
  <image href="../Terrain%20Rouge-Noir%20-%20Gouffre%20de%20Namor.png" x="56" y="232" width="632" height="432" preserveAspectRatio="xMidYMid slice" clip-path="url(#clipArt)"/>
  <rect x="56" y="232" width="632" height="432" rx="6" fill="none" stroke="#000000" stroke-width="6" opacity="0.26"/>
  <rect x="56" y="232" width="632" height="432" rx="6" fill="none" stroke="#ffb45a" stroke-width="2" opacity="0.85"/>
  <g transform="translate(63 239) scale(1 1)" fill="none" stroke="#e8c477" stroke-width="3" opacity="0.9">
    <path d="M0 24 L0 6 Q0 0 6 0 L24 0"/>
    <path d="M7 32 L7 13 Q7 7 13 7 L32 7" opacity="0.5"/>
    <circle cx="14" cy="14" r="2.5" fill="#e8c477" stroke="none"/>
  </g>
  <g transform="translate(681 239) scale(-1 1)" fill="none" stroke="#e8c477" stroke-width="3" opacity="0.9">
    <path d="M0 24 L0 6 Q0 0 6 0 L24 0"/>
    <path d="M7 32 L7 13 Q7 7 13 7 L32 7" opacity="0.5"/>
    <circle cx="14" cy="14" r="2.5" fill="#e8c477" stroke="none"/>
  </g>
  <g transform="translate(63 657) scale(1 -1)" fill="none" stroke="#e8c477" stroke-width="3" opacity="0.9">
    <path d="M0 24 L0 6 Q0 0 6 0 L24 0"/>
    <path d="M7 32 L7 13 Q7 7 13 7 L32 7" opacity="0.5"/>
    <circle cx="14" cy="14" r="2.5" fill="#e8c477" stroke="none"/>
  </g>
  <g transform="translate(681 657) scale(-1 -1)" fill="none" stroke="#e8c477" stroke-width="3" opacity="0.9">
    <path d="M0 24 L0 6 Q0 0 6 0 L24 0"/>
    <path d="M7 32 L7 13 Q7 7 13 7 L32 7" opacity="0.5"/>
    <circle cx="14" cy="14" r="2.5" fill="#e8c477" stroke="none"/>
  </g>

  <rect x="50" y="674" width="644" height="274" rx="10" fill="url(#orBrosse)" opacity="0.92"/>
  <rect x="56" y="680" width="632" height="262" rx="7" fill="url(#parchemin)"/>
  <rect x="56" y="680" width="632" height="262" rx="7" fill="url(#creuxHaut)" opacity="0.24"/>
  <rect x="61" y="685" width="622" height="252" rx="5" fill="none" stroke="#2b0d08" stroke-width="1.4" opacity="0.4"/>
  <text x="84" y="722" font-family="Georgia, 'Times New Roman', serif" font-size="25" font-weight="700" fill="#2b0d08">Frontière commune</text>
  <text x="84" y="760" font-size="20" font-weight="400" fill="#1d120c">Arrive engagé : il ne produit qu'au tour suivant. Il</text>
  <text x="84" y="787" font-size="20" font-weight="400" fill="#1d120c">rend alors 1 mana rouge ou noir, au choix.</text>
  <g>
    <rect x="84" y="854" width="93.5" height="30" rx="7" fill="#f4e5c8"/>
    <rect x="84" y="854" width="93.5" height="30" rx="7" fill="none" stroke="#2b0d08" stroke-width="1.6" opacity="0.8"/>
    <rect x="86" y="856" width="89.5" height="26" rx="5" fill="none" stroke="#ffffff" stroke-width="1" opacity="0.55"/>
    <text x="130.75" y="874" text-anchor="middle" font-family="Arial, sans-serif" font-size="15" font-weight="700" fill="#4a3524">Terrain</text>
  </g>
  <g>
    <rect x="187.5" y="854" width="156.5" height="30" rx="7" fill="#f4e5c8"/>
    <rect x="187.5" y="854" width="156.5" height="30" rx="7" fill="none" stroke="#2b0d08" stroke-width="1.6" opacity="0.8"/>
    <rect x="189.5" y="856" width="152.5" height="26" rx="5" fill="none" stroke="#ffffff" stroke-width="1" opacity="0.55"/>
    <text x="265.75" y="874" text-anchor="middle" font-family="Arial, sans-serif" font-size="15" font-weight="700" fill="#4a3524">Double source</text>
  </g>
  <line x1="84" y1="896" x2="660" y2="896" stroke="#4a3524" stroke-width="1.2" opacity="0.3"/>
  <text x="372" y="914" text-anchor="middle" font-family="Georgia, 'Times New Roman', serif" font-size="17" font-style="italic" fill="#4a3524">On y descend pour une raison. On y reste pour une</text>
  <text x="372" y="934" text-anchor="middle" font-family="Georgia, 'Times New Roman', serif" font-size="17" font-style="italic" fill="#4a3524">autre.</text>

  <rect x="56" y="946" width="632" height="62" rx="8" fill="url(#orBrosse)" opacity="0.2"/>
  <g>
    <circle cx="372" cy="977" r="51" fill="#140d0b" opacity="0.92"/>
    <circle cx="372" cy="977" r="49" fill="url(#orBrosse)"/>
    <circle cx="372" cy="977" r="44" fill="#2b0d08"/>
    <circle cx="372" cy="977" r="44" fill="url(#pierre)"/>
    <circle cx="372" cy="977" r="44" fill="none" stroke="#ffb45a" stroke-width="2" opacity="0.7"/>
    <g transform="translate(372 947)" opacity="0.95"><path d="M0 -13 C7 -5 11 0 11 4 A11 11 0 0 1 -11 4 C-11 0 -7 -5 0 -13 Z" fill="#e8f2ff"/></g>
    <text x="372" y="999" text-anchor="middle" font-family="Georgia, 'Times New Roman', serif" font-size="34" font-weight="700" fill="#fff8e4">1</text>
  </g>
  <text x="112" y="985" text-anchor="middle" font-family="Georgia, 'Times New Roman', serif" font-size="17" font-weight="700" letter-spacing="2" fill="#e8c477" opacity="0.9">SOURCE</text>
  <text x="632" y="985" text-anchor="middle" font-family="Georgia, 'Times New Roman', serif" font-size="17" font-weight="700" letter-spacing="2" fill="#e8c477" opacity="0.9">FEU</text>
</svg>