<?xml version="1.0" encoding="UTF-8"?>
<svg xmlns="http://www.w3.org/2000/svg" width="744" height="1038" viewBox="0 0 744 1038" role="img" aria-label="Robot antique Chasseur">
  <defs>
    <linearGradient id="cadreBois" x1="0" y1="0" x2="0.4" y2="1">
      <stop offset="0%" stop-color="#b9e5ff" stop-opacity="0.55"/>
      <stop offset="18%" stop-color="#477ca8"/>
      <stop offset="55%" stop-color="#0c1823"/>
      <stop offset="100%" stop-color="#477ca8" stop-opacity="0.9"/>
    </linearGradient>
    <linearGradient id="cadrePierre" x1="0" y1="0" x2="0.25" y2="1">
      <stop offset="0%" stop-color="#8d8377"/>
      <stop offset="24%" stop-color="#477ca8"/>
      <stop offset="62%" stop-color="#0c1823"/>
      <stop offset="100%" stop-color="#6d6459"/>
    </linearGradient>
    <linearGradient id="orBrosse" x1="0" y1="0" x2="0.3" y2="1">
      <stop offset="0%" stop-color="#f6dfa6"/>
      <stop offset="45%" stop-color="#e8c477"/>
      <stop offset="100%" stop-color="#8a6526"/>
    </linearGradient>
    <linearGradient id="parchemin" x1="0" y1="0" x2="0" y2="1">
      <stop offset="0%" stop-color="#fbf1dc"/>
      <stop offset="100%" stop-color="#e4cfa8"/>
    </linearGradient>
    <radialGradient id="pierre" cx="0.35" cy="0.28" r="0.85">
      <stop offset="0%" stop-color="#ffffff" stop-opacity="0.4"/>
      <stop offset="45%" stop-color="#ffffff" stop-opacity="0.05"/>
      <stop offset="100%" stop-color="#000000" stop-opacity="0.5"/>
    </radialGradient>
    <radialGradient id="voileChiffre">
      <stop offset="0%" stop-color="#000000" stop-opacity="0.95"/>
      <stop offset="62%" stop-color="#000000" stop-opacity="0.82"/>
      <stop offset="100%" stop-color="#000000" stop-opacity="0"/>
    </radialGradient>
    <linearGradient id="creuxHaut" x1="0" y1="0" x2="0" y2="1">
      <stop offset="0%" stop-color="#000000" stop-opacity="0.4"/>
      <stop offset="55%" stop-color="#000000" stop-opacity="0"/>
    </linearGradient>
    <clipPath id="clipArt"><rect x="56" y="226" width="632" height="390" rx="6"/></clipPath>
  </defs>

  <rect width="744" height="1038" rx="22" fill="#140d0b"/>
  <rect x="12" y="12" width="720" height="1014" rx="18" fill="url(#cadreBois)"/>
  <rect x="12" y="12" width="720" height="1014" rx="18" fill="none" stroke="#e8c477" stroke-width="1.5" opacity="0.5"/>
  <rect x="24" y="24" width="696" height="990" rx="14" fill="none" stroke="#8a6526" stroke-width="2" opacity="0.8"/>
  <rect x="32" y="32" width="680" height="974" rx="10" fill="#191110" opacity="0.5"/>

  <rect x="29" y="43" width="686" height="110" rx="17" fill="#140d0b" opacity="0.85"/>
  <rect x="32" y="46" width="680" height="104" rx="14" fill="url(#orBrosse)"/>
  <rect x="32" y="46" width="680" height="104" rx="14" fill="url(#creuxHaut)" opacity="0.22"/>
  <rect x="35" y="49" width="674" height="98" rx="11" fill="none" stroke="#e8c477" stroke-width="1.2" opacity="0.5"/>
  <rect x="42" y="58" width="148" height="80" rx="11" fill="#140d0b" opacity="0.55"/>
  <rect x="42" y="58" width="148" height="80" rx="11" fill="none" stroke="#8a6526" stroke-width="1.4" opacity="0.75"/>
  <rect x="610" y="58" width="92" height="80" rx="11" fill="#140d0b" opacity="0.55"/>
  <rect x="610" y="58" width="92" height="80" rx="11" fill="none" stroke="#8a6526" stroke-width="1.4" opacity="0.75"/>
  <rect x="210" y="58" width="380" height="80" rx="8" fill="url(#parchemin)"/>
  <rect x="210" y="58" width="380" height="80" rx="8" fill="url(#creuxHaut)" opacity="0.28"/>
  <rect x="214" y="62" width="372" height="72" rx="5" fill="none" stroke="#0c1823" stroke-width="1.5" opacity="0.45"/>
  <text x="400" y="107.1" text-anchor="middle" font-family="Georgia, 'Palatino Linotype', 'Book Antiqua', serif" font-size="26" font-weight="700" fill="#1d120c">Robot antique Chasseur</text>

  <g>
    <circle cx="67" cy="98" r="21" fill="#140d0b" opacity="0.9"/>
    <circle cx="67" cy="98" r="20" fill="url(#orBrosse)"/>
    <circle cx="67" cy="98" r="18" fill="none" stroke="#8a6526" stroke-width="2"/>
    <circle cx="67" cy="98" r="17" fill="#2f7fc0"/>
    <circle cx="67" cy="98" r="17" fill="url(#pierre)"/>
    <circle cx="67" cy="98" r="17" fill="none" stroke="#8fd2ff" stroke-width="2" opacity="0.75"/>
    <ellipse cx="67" cy="90.86" rx="8.84" ry="5.1" fill="#ffffff" opacity="0.2"/>
    <image href="../Types/Eau.png" x="55.5" y="86.5" width="23" height="23" opacity="0.95"/>
  </g>
  <g>
    <circle cx="116" cy="98" r="21" fill="#140d0b" opacity="0.9"/>
    <circle cx="116" cy="98" r="20" fill="url(#orBrosse)"/>
    <circle cx="116" cy="98" r="18" fill="none" stroke="#8a6526" stroke-width="2"/>
    <circle cx="116" cy="98" r="17" fill="#2f7fc0"/>
    <circle cx="116" cy="98" r="17" fill="url(#pierre)"/>
    <circle cx="116" cy="98" r="17" fill="none" stroke="#8fd2ff" stroke-width="2" opacity="0.75"/>
    <ellipse cx="116" cy="90.86" rx="8.84" ry="5.1" fill="#ffffff" opacity="0.2"/>
    <image href="../Types/Eau.png" x="104.5" y="86.5" width="23" height="23" opacity="0.95"/>
  </g>
  <g>
    <circle cx="165" cy="98" r="21" fill="#140d0b" opacity="0.9"/>
    <circle cx="165" cy="98" r="20" fill="url(#orBrosse)"/>
    <circle cx="165" cy="98" r="18" fill="none" stroke="#8a6526" stroke-width="2"/>
    <circle cx="165" cy="98" r="17" fill="#b3ac9c"/>
    <circle cx="165" cy="98" r="17" fill="url(#pierre)"/>
    <circle cx="165" cy="98" r="17" fill="none" stroke="#e9e2ce" stroke-width="2" opacity="0.75"/>
    <ellipse cx="165" cy="90.86" rx="8.84" ry="5.1" fill="#ffffff" opacity="0.2"/>
    <text x="165" y="105.7" text-anchor="middle" font-family="Georgia, 'Times New Roman', serif" font-size="22" font-weight="700" fill="#2a251c">2</text>
  </g>
  <image href="../Types/Eau.png" x="622" y="64" width="68" height="68"/>

  <rect x="90" y="158" width="564" height="60" rx="9" fill="url(#orBrosse)" opacity="0.92"/>
  <rect x="96" y="162" width="552" height="52" rx="6" fill="url(#parchemin)"/>
  <rect x="96" y="162" width="552" height="52" rx="6" fill="url(#creuxHaut)" opacity="0.26"/>
  <text x="372" y="194.48" text-anchor="middle" font-family="Georgia, 'Times New Roman', serif" font-size="18" font-weight="700" letter-spacing="0.8" fill="#4a3524">CRÉATURE - ROBOT ANTIQUE CHASSEUR</text>

  <rect x="46" y="216" width="652" height="410" rx="10" fill="#140d0b" opacity="0.9"/>
  <rect x="50" y="220" width="644" height="402" rx="8" fill="url(#orBrosse)"/>
  <image href="../Robot%20antique%20Chasseur.jpg" x="56" y="226" width="632" height="390" preserveAspectRatio="xMidYMid slice" clip-path="url(#clipArt)"/>
  <rect x="56" y="226" width="632" height="390" rx="6" fill="none" stroke="#000000" stroke-width="6" opacity="0.26"/>
  <rect x="56" y="226" width="632" height="390" rx="6" fill="none" stroke="#b9e5ff" stroke-width="2" opacity="0.85"/>
  <g transform="translate(63 233) scale(1 1)" fill="none" stroke="#e8c477" stroke-width="3" opacity="0.9">
    <path d="M0 24 L0 6 Q0 0 6 0 L24 0"/>
    <path d="M7 32 L7 13 Q7 7 13 7 L32 7" opacity="0.5"/>
    <circle cx="14" cy="14" r="2.5" fill="#e8c477" stroke="none"/>
  </g>
  <g transform="translate(681 233) scale(-1 1)" fill="none" stroke="#e8c477" stroke-width="3" opacity="0.9">
    <path d="M0 24 L0 6 Q0 0 6 0 L24 0"/>
    <path d="M7 32 L7 13 Q7 7 13 7 L32 7" opacity="0.5"/>
    <circle cx="14" cy="14" r="2.5" fill="#e8c477" stroke="none"/>
  </g>
  <g transform="translate(63 609) scale(1 -1)" fill="none" stroke="#e8c477" stroke-width="3" opacity="0.9">
    <path d="M0 24 L0 6 Q0 0 6 0 L24 0"/>
    <path d="M7 32 L7 13 Q7 7 13 7 L32 7" opacity="0.5"/>
    <circle cx="14" cy="14" r="2.5" fill="#e8c477" stroke="none"/>
  </g>
  <g transform="translate(681 609) scale(-1 -1)" fill="none" stroke="#e8c477" stroke-width="3" opacity="0.9">
    <path d="M0 24 L0 6 Q0 0 6 0 L24 0"/>
    <path d="M7 32 L7 13 Q7 7 13 7 L32 7" opacity="0.5"/>
    <circle cx="14" cy="14" r="2.5" fill="#e8c477" stroke="none"/>
  </g>

  <rect x="50" y="622" width="644" height="272" rx="10" fill="url(#orBrosse)" opacity="0.92"/>
  <rect x="56" y="628" width="632" height="260" rx="7" fill="url(#parchemin)"/>
  <rect x="56" y="628" width="632" height="260" rx="7" fill="url(#creuxHaut)" opacity="0.24"/>
  <rect x="61" y="633" width="622" height="250" rx="5" fill="none" stroke="#0c1823" stroke-width="1.4" opacity="0.4"/>
  <text x="84" y="670" font-family="Georgia, 'Times New Roman', serif" font-size="27" font-weight="700" fill="#0c1823">Verrouillage cryogénique</text>
  <text x="84" y="704" font-family="Inter, ui-sans-serif, system-ui, -apple-system, 'Segoe UI', sans-serif" font-size="19" font-weight="400" fill="#1d120c">Quand cette carte arrive sur le champ de bataille, engage la créature</text>
  <text x="84" y="728" font-family="Inter, ui-sans-serif, system-ui, -apple-system, 'Segoe UI', sans-serif" font-size="19" font-weight="400" fill="#1d120c">adverse la plus puissante. Elle ne se dégage pas au prochain tour.</text>
  <g>
    <rect x="84" y="773" width="190.4" height="36" rx="8" fill="#f4e5c8"/>
    <rect x="84" y="773" width="190.4" height="36" rx="8" fill="none" stroke="#0c1823" stroke-width="1.6" opacity="0.8"/>
    <rect x="86" y="775" width="186.4" height="32" rx="6" fill="none" stroke="#ffffff" stroke-width="1" opacity="0.55"/>
    <text x="179.2" y="798" text-anchor="middle" font-family="Arial, sans-serif" font-size="19" font-weight="700" fill="#4a3524">Robot antique</text>
  </g>
  <g>
    <rect x="285.4" y="773" width="62.400000000000006" height="36" rx="8" fill="#f4e5c8"/>
    <rect x="285.4" y="773" width="62.400000000000006" height="36" rx="8" fill="none" stroke="#0c1823" stroke-width="1.6" opacity="0.8"/>
    <rect x="287.4" y="775" width="58.400000000000006" height="32" rx="6" fill="none" stroke="#ffffff" stroke-width="1" opacity="0.55"/>
    <text x="316.59999999999997" y="798" text-anchor="middle" font-family="Arial, sans-serif" font-size="19" font-weight="700" fill="#4a3524">Gel</text>
  </g>
  <line x1="84" y1="821" x2="660" y2="821" stroke="#4a3524" stroke-width="1.2" opacity="0.3"/>
  <text x="372" y="847" text-anchor="middle" font-family="Georgia, 'Times New Roman', serif" font-size="21" font-style="italic" fill="#4a3524">Le froid ralentit sa proie, jamais les calculs de son œil</text>
  <text x="372" y="872" text-anchor="middle" font-family="Georgia, 'Times New Roman', serif" font-size="21" font-style="italic" fill="#4a3524">ancien.</text>

  <rect x="29" y="897" width="686" height="106" rx="17" fill="#140d0b" opacity="0.85"/>
  <rect x="32" y="900" width="680" height="100" rx="14" fill="url(#cadreBois)"/>
  <rect x="32" y="900" width="680" height="100" rx="14" fill="url(#creuxHaut)" opacity="0.22"/>
  <rect x="35" y="903" width="674" height="94" rx="11" fill="none" stroke="#e8c477" stroke-width="1.2" opacity="0.5"/>
  <g>
    <circle cx="96" cy="950" r="49" fill="#140d0b" opacity="0.92"/>
    <circle cx="96" cy="950" r="47" fill="url(#orBrosse)"/>
    <circle cx="96" cy="950" r="42" fill="#140d0b" opacity="0.55"/>
    <circle cx="96" cy="950" r="42" fill="none" stroke="#8a6526" stroke-width="2"/>
    <image href="../Medaillons/Attaque.png" x="56" y="910" width="80" height="80"/>
    <circle cx="96" cy="950" r="42" fill="none" stroke="#e8c477" stroke-width="1.5" opacity="0.55"/>
    <circle cx="100.56" cy="947.04" r="39" fill="#0d0907" opacity="0.55"/>
    <text x="100.56" y="962.79" text-anchor="middle" font-family="Georgia, 'Times New Roman', serif" font-size="45" font-weight="700" fill="#ffffff" stroke="#0a0705" stroke-width="6" stroke-linejoin="round" paint-order="stroke">5</text>

  </g>
  <g>
    <circle cx="648" cy="950" r="49" fill="#140d0b" opacity="0.92"/>
    <circle cx="648" cy="950" r="47" fill="url(#orBrosse)"/>
    <circle cx="648" cy="950" r="42" fill="#140d0b" opacity="0.55"/>
    <circle cx="648" cy="950" r="42" fill="none" stroke="#8a6526" stroke-width="2"/>
    <image href="../Medaillons/Coeur.png" x="610" y="912" width="76" height="76"/>
    <circle cx="648" cy="950" r="42" fill="none" stroke="#e8c477" stroke-width="1.5" opacity="0.55"/>
    <circle cx="647.924" cy="941.26" r="39" fill="#0d0907" opacity="0.52"/>
    <text x="647.924" y="957.01" text-anchor="middle" font-family="Georgia, 'Times New Roman', serif" font-size="45" font-weight="700" fill="#ffffff" stroke="#0a0705" stroke-width="6" stroke-linejoin="round" paint-order="stroke">5</text>

  </g>
  <rect x="32" y="1004" width="680" height="10" rx="5" fill="url(#cadreBois)"/>
  <rect x="32" y="1004" width="680" height="10" rx="5" fill="none" stroke="#8a6526" stroke-width="1.5" opacity="0.9"/>
  <rect x="38" y="1005" width="668" height="2" rx="1" fill="#e8c477" opacity="0.55"/>
  <g>
    <rect x="320" y="996" width="104" height="18" rx="6" fill="#0b0a0c"/>
    <text x="372" y="1010" text-anchor="middle" font-family="Georgia, 'Times New Roman', serif" font-size="15" font-weight="700" letter-spacing="2" fill="#ffd84a">061/203</text>
  </g>
</svg>